<?xml version="1.0" encoding="UTF-8" standalone="no"?>
<svg width="192px" height="192px" viewBox="0 0 192 192" version="1.1" xmlns="http://www.w3.org/2000/svg" xmlns:xlink="http://www.w3.org/1999/xlink">
    <!-- Generator: Sketch 3.7.1 (28215) - http://www.bohemiancoding.com/sketch -->
    <title>Slice 1</title>
    <desc>Created with Sketch.</desc>
    <defs></defs>
    <g id="Page-1" stroke="none" stroke-width="1" fill="none" fill-rule="evenodd">
        <path d="M124,160 L68,160 L68,96 L124,160 Z M124,32 L68,32 L68,96 L124,32 Z" id="Combined-Shape" fill="#1565C0"></path>
        <g id="Group" transform="translate(20.000000, 32.000000)" fill="#82B1FF">
            <polygon id="Path-1" points="48 -5.1159077e-13 1.10134124e-13 36 48 64"></polygon>
            <polyline id="Path-1" fill-opacity="0.336100746" points="48 64 1.10134124e-13 92 1.10134124e-13 36"></polyline>
            <polygon id="Path-1" points="48 64 1.10134124e-13 92 48 128"></polygon>
        </g>
        <polygon id="Polygon-1" fill-opacity="0.95" fill="#4990E2" points="124 32 172 68 172 124 124 160 68 96"></polygon>
        <g id="Group" opacity="0.6" transform="translate(148.000000, 96.000000) scale(-1, 1) translate(-148.000000, -96.000000) translate(124.000000, 32.000000)" fill="#82B1FF">
            <polygon id="Path-1" points="48 -5.1159077e-13 1.10134124e-13 36 48 64"></polygon>
            <polyline id="Path-1" fill-opacity="0.336100746" points="48 64 1.10134124e-13 92 1.10134124e-13 36"></polyline>
            <polygon id="Path-1" points="48 64 1.10134124e-13 92 48 128"></polygon>
        </g>
    </g>
</svg>